<svg width="1772" height="1772" viewBox="0 0 1772 1772" fill="none" xmlns="http://www.w3.org/2000/svg">
<rect y="1636" width="109" height="1772" transform="rotate(-90 0 1636)" fill="white" fill-opacity="0.2"/>
<rect x="0.5" y="1635.5" width="108" height="1771" transform="rotate(-90 0.5 1635.5)" stroke="black" stroke-opacity="0.03"/>
<rect y="1529" width="109" height="1772" transform="rotate(-90 0 1529)" fill="white" fill-opacity="0.2"/>
<rect x="0.5" y="1528.5" width="108" height="1771" transform="rotate(-90 0.5 1528.5)" stroke="black" stroke-opacity="0.03"/>
<rect y="1422" width="109" height="1772" transform="rotate(-90 0 1422)" fill="white" fill-opacity="0.2"/>
<rect x="0.5" y="1421.5" width="108" height="1771" transform="rotate(-90 0.5 1421.5)" stroke="black" stroke-opacity="0.03"/>
<rect y="1315" width="109" height="1772" transform="rotate(-90 0 1315)" fill="white" fill-opacity="0.2"/>
<rect x="0.5" y="1314.5" width="108" height="1771" transform="rotate(-90 0.5 1314.5)" stroke="black" stroke-opacity="0.03"/>
<rect y="1208" width="109" height="1772" transform="rotate(-90 0 1208)" fill="white" fill-opacity="0.2"/>
<rect x="0.5" y="1207.5" width="108" height="1771" transform="rotate(-90 0.5 1207.5)" stroke="black" stroke-opacity="0.03"/>
<rect y="1101" width="109" height="1772" transform="rotate(-90 0 1101)" fill="white" fill-opacity="0.2"/>
<rect x="0.5" y="1100.5" width="108" height="1771" transform="rotate(-90 0.5 1100.5)" stroke="black" stroke-opacity="0.03"/>
<rect y="994" width="109" height="1772" transform="rotate(-90 0 994)" fill="white" fill-opacity="0.2"/>
<rect x="0.5" y="993.5" width="108" height="1771" transform="rotate(-90 0.5 993.5)" stroke="black" stroke-opacity="0.03"/>
<rect y="887" width="109" height="1772" transform="rotate(-90 0 887)" fill="white" fill-opacity="0.2"/>
<rect x="0.5" y="886.5" width="108" height="1771" transform="rotate(-90 0.5 886.5)" stroke="black" stroke-opacity="0.03"/>
<rect y="780" width="109" height="1772" transform="rotate(-90 0 780)" fill="white" fill-opacity="0.2"/>
<rect x="0.5" y="779.5" width="108" height="1771" transform="rotate(-90 0.5 779.5)" stroke="black" stroke-opacity="0.03"/>
<rect y="673" width="109" height="1772" transform="rotate(-90 0 673)" fill="white" fill-opacity="0.2"/>
<rect x="0.5" y="672.5" width="108" height="1771" transform="rotate(-90 0.5 672.5)" stroke="black" stroke-opacity="0.03"/>
<rect y="566" width="109" height="1772" transform="rotate(-90 0 566)" fill="white" fill-opacity="0.2"/>
<rect x="0.5" y="565.5" width="108" height="1771" transform="rotate(-90 0.5 565.5)" stroke="black" stroke-opacity="0.03"/>
<rect y="459" width="109" height="1772" transform="rotate(-90 0 459)" fill="white" fill-opacity="0.2"/>
<rect x="0.5" y="458.5" width="108" height="1771" transform="rotate(-90 0.5 458.5)" stroke="black" stroke-opacity="0.03"/>
<rect y="352" width="109" height="1772" transform="rotate(-90 0 352)" fill="white" fill-opacity="0.2"/>
<rect x="0.5" y="351.5" width="108" height="1771" transform="rotate(-90 0.5 351.5)" stroke="black" stroke-opacity="0.03"/>
<rect y="245" width="109" height="1772" transform="rotate(-90 0 245)" fill="white" fill-opacity="0.2"/>
<rect x="0.5" y="244.5" width="108" height="1771" transform="rotate(-90 0.5 244.5)" stroke="black" stroke-opacity="0.03"/>
<rect x="136" width="109" height="1772" fill="white" fill-opacity="0.2"/>
<rect x="136.5" y="0.5" width="108" height="1771" stroke="black" stroke-opacity="0.03"/>
<rect x="243" width="109" height="1772" fill="white" fill-opacity="0.2"/>
<rect x="243.5" y="0.5" width="108" height="1771" stroke="black" stroke-opacity="0.03"/>
<rect x="350" width="109" height="1772" fill="white" fill-opacity="0.2"/>
<rect x="350.5" y="0.5" width="108" height="1771" stroke="black" stroke-opacity="0.03"/>
<rect x="457" width="109" height="1772" fill="white" fill-opacity="0.2"/>
<rect x="457.5" y="0.5" width="108" height="1771" stroke="black" stroke-opacity="0.03"/>
<rect x="564" width="109" height="1772" fill="white" fill-opacity="0.2"/>
<rect x="564.5" y="0.5" width="108" height="1771" stroke="black" stroke-opacity="0.03"/>
<rect x="671" width="109" height="1772" fill="white" fill-opacity="0.2"/>
<rect x="671.5" y="0.5" width="108" height="1771" stroke="black" stroke-opacity="0.03"/>
<rect x="778" width="109" height="1772" fill="white" fill-opacity="0.2"/>
<rect x="778.5" y="0.5" width="108" height="1771" stroke="black" stroke-opacity="0.03"/>
<rect x="885" width="109" height="1772" fill="white" fill-opacity="0.2"/>
<rect x="885.5" y="0.5" width="108" height="1771" stroke="black" stroke-opacity="0.03"/>
<rect x="992" width="109" height="1772" fill="white" fill-opacity="0.2"/>
<rect x="992.5" y="0.5" width="108" height="1771" stroke="black" stroke-opacity="0.03"/>
<rect x="1099" width="109" height="1772" fill="white" fill-opacity="0.2"/>
<rect x="1099.5" y="0.5" width="108" height="1771" stroke="black" stroke-opacity="0.03"/>
<rect x="1206" width="109" height="1772" fill="white" fill-opacity="0.2"/>
<rect x="1206.5" y="0.5" width="108" height="1771" stroke="black" stroke-opacity="0.03"/>
<rect x="1313" width="109" height="1772" fill="white" fill-opacity="0.2"/>
<rect x="1313.5" y="0.5" width="108" height="1771" stroke="black" stroke-opacity="0.03"/>
<rect x="1420" width="109" height="1772" fill="white" fill-opacity="0.2"/>
<rect x="1420.5" y="0.5" width="108" height="1771" stroke="black" stroke-opacity="0.03"/>
<rect x="1527" width="109" height="1772" fill="white" fill-opacity="0.2"/>
<rect x="1527.5" y="0.5" width="108" height="1771" stroke="black" stroke-opacity="0.03"/>
</svg>
